<svg xmlns="http://www.w3.org/2000/svg" xmlns:xlink="http://www.w3.org/1999/xlink" width="21" height="15" viewBox="0 0 21 15">
  <defs>
    <path id="behance-a" d="M8.45833333,9.83686674 C9.61770833,9.2826617 10.2229167,8.44406198 10.2229167,7.13876328 C10.2229167,4.56462675 8.30520833,3.9375 6.0921875,3.9375 L0,3.9375 L0,16.8592279 L6.26354167,16.8592279 C8.61145833,16.8592279 10.8171875,15.7325874 10.8171875,13.1074056 C10.8171875,11.4848975 10.0479167,10.2853353 8.45833333,9.83686674 Z M2.84010417,6.14338188 L5.50520833,6.14338188 C6.5296875,6.14338188 7.45208333,6.43142265 7.45208333,7.6200466 C7.45208333,8.71751841 6.73385417,9.15869479 5.7203125,9.15869479 L2.84010417,9.15869479 L2.84010417,6.14338188 Z M5.87708333,14.6642843 L2.84010417,14.6642843 L2.84010417,11.1057046 L5.93541667,11.1057046 C7.1859375,11.1057046 7.97708333,11.6270948 7.97708333,12.950624 C7.97708333,14.2559227 7.0328125,14.6642843 5.87708333,14.6642843 Z M18.9473958,5.88815587 L13.7083333,5.88815587 L13.7083333,4.61567195 L18.9473958,4.61567195 L18.9473958,5.88815587 Z M21,12.316205 C21,9.54882596 19.38125,7.24085368 16.4463542,7.24085368 C13.5953125,7.24085368 11.659375,9.3847521 11.659375,12.1922381 C11.659375,15.1054606 13.4932292,17.1035156 16.4463542,17.1035156 C18.68125,17.1035156 20.1286458,16.097196 20.825,13.9569436 L18.5572917,13.9569436 C18.3130208,14.7554364 17.3067708,15.1783824 16.5265625,15.1783824 C15.0208333,15.1783824 14.2296875,14.2960296 14.2296875,12.7974884 L20.978125,12.7974884 C20.9890625,12.6443528 21,12.4802789 21,12.316205 Z M14.2333333,11.1786263 C14.3171875,9.94989539 15.1338542,9.1805713 16.3661458,9.1805713 C17.6567708,9.1805713 18.3057292,9.93895714 18.4151042,11.1786263 L14.2333333,11.1786263 Z"/>
  </defs>
  <g fill="none" fill-rule="evenodd" transform="translate(0 -3)">
    <mask id="behance-b" fill="#fff">
      <use xlink:href="#behance-a"/>
    </mask>
    <use fill="#000" fill-rule="nonzero" xlink:href="#behance-a"/>
    <g fill="#242A42" mask="url(#behance-b)">
      <rect width="21" height="21"/>
    </g>
  </g>
</svg>
