<svg xmlns="http://www.w3.org/2000/svg" xmlns:xlink="http://www.w3.org/1999/xlink" width="21" height="21" viewBox="0 0 21 21">
  <defs>
    <path id="behance-copy-3-a" d="M7.13261719,16.5457031 C7.13261719,16.6277344 7.03828125,16.6933594 6.91933594,16.6933594 C6.78398437,16.7056641 6.68964844,16.6400391 6.68964844,16.5457031 C6.68964844,16.4636719 6.78398438,16.3980469 6.90292969,16.3980469 C7.02597656,16.3857422 7.13261719,16.4513672 7.13261719,16.5457031 Z M5.85703125,16.3611328 C5.82832031,16.4431641 5.91035156,16.5375 6.03339844,16.5621094 C6.14003906,16.603125 6.26308594,16.5621094 6.28769531,16.4800781 C6.31230469,16.3980469 6.234375,16.3037109 6.11132812,16.2667969 C6.0046875,16.2380859 5.88574219,16.2791016 5.85703125,16.3611328 Z M7.66992188,16.2914062 C7.55097656,16.3201172 7.46894531,16.3980469 7.48125,16.4923828 C7.49355469,16.5744141 7.60019531,16.6277344 7.72324219,16.5990234 C7.8421875,16.5703125 7.92421875,16.4923828 7.91191406,16.4103516 C7.89960938,16.3324219 7.78886719,16.2791016 7.66992188,16.2914062 Z M10.36875,0.57421875 C4.67988281,0.57421875 0.328125,4.89316406 0.328125,10.5820312 C0.328125,15.1306641 3.19101562,19.0230469 7.28027344,20.3929688 C7.80527344,20.4873047 7.98984375,20.1632812 7.98984375,19.8966797 C7.98984375,19.6423828 7.97753906,18.2396484 7.97753906,17.3783203 C7.97753906,17.3783203 5.10644531,17.9935547 4.50351562,16.1560547 C4.50351562,16.1560547 4.0359375,14.9625 3.36328125,14.6548828 C3.36328125,14.6548828 2.42402344,14.0109375 3.42890625,14.0232422 C3.42890625,14.0232422 4.45019531,14.1052734 5.01210937,15.0814453 C5.91035156,16.6646484 7.415625,16.209375 8.00214844,15.9386719 C8.09648438,15.2824219 8.36308594,14.8271484 8.65839844,14.5564453 C6.365625,14.3021484 4.05234375,13.9699219 4.05234375,10.0242187 C4.05234375,8.89628906 4.3640625,8.33027344 5.0203125,7.60839844 C4.91367188,7.34179687 4.56503906,6.24257812 5.12695312,4.8234375 C5.98417969,4.55683594 7.95703125,5.93085937 7.95703125,5.93085937 C8.77734375,5.70117187 9.65917969,5.58222656 10.5328125,5.58222656 C11.4064453,5.58222656 12.2882813,5.70117187 13.1085938,5.93085937 C13.1085938,5.93085937 15.0814453,4.55273437 15.9386719,4.8234375 C16.5005859,6.24667969 16.1519531,7.34179687 16.0453125,7.60839844 C16.7015625,8.334375 17.1035156,8.90039062 17.1035156,10.0242187 C17.1035156,13.9822266 14.6876953,14.2980469 12.3949219,14.5564453 C12.7722656,14.8804687 13.0921875,15.4957031 13.0921875,16.4595703 C13.0921875,17.8417969 13.0798828,19.5521484 13.0798828,19.8884766 C13.0798828,20.1550781 13.2685547,20.4791016 13.7894531,20.3847656 C17.8910156,19.0230469 20.671875,15.1306641 20.671875,10.5820312 C20.671875,4.89316406 16.0576172,0.57421875 10.36875,0.57421875 Z M4.31484375,14.7205078 C4.26152344,14.7615234 4.27382812,14.8558594 4.34355469,14.9337891 C4.40917969,14.9994141 4.50351563,15.028125 4.55683594,14.9748047 C4.61015625,14.9337891 4.59785156,14.8394531 4.528125,14.7615234 C4.4625,14.6958984 4.36816406,14.6671875 4.31484375,14.7205078 Z M3.871875,14.3882812 C3.84316406,14.4416016 3.88417969,14.5072266 3.96621094,14.5482422 C4.03183594,14.5892578 4.11386719,14.5769531 4.14257812,14.5195312 C4.17128906,14.4662109 4.13027344,14.4005859 4.04824219,14.3595703 C3.96621094,14.3349609 3.90058594,14.3472656 3.871875,14.3882812 Z M5.20078125,15.8484375 C5.13515625,15.9017578 5.15976563,16.0248047 5.25410156,16.1027344 C5.3484375,16.1970703 5.46738281,16.209375 5.52070313,16.14375 C5.57402344,16.0904297 5.54941406,15.9673828 5.46738281,15.8894531 C5.37714844,15.7951172 5.25410156,15.7828125 5.20078125,15.8484375 Z M4.73320313,15.2455078 C4.66757813,15.2865234 4.66757813,15.3931641 4.73320313,15.4875 C4.79882812,15.5818359 4.90957031,15.6228516 4.96289062,15.5818359 C5.02851562,15.5285156 5.02851562,15.421875 4.96289062,15.3275391 C4.90546875,15.2332031 4.79882812,15.1921875 4.73320313,15.2455078 Z"/>
  </defs>
  <g fill="none" fill-rule="evenodd">
    <mask id="behance-copy-3-b" fill="#fff">
      <use xlink:href="#behance-copy-3-a"/>
    </mask>
    <use fill="#000" fill-rule="nonzero" xlink:href="#behance-copy-3-a"/>
    <g fill="#242A42" mask="url(#behance-copy-3-b)">
      <rect width="21" height="21"/>
    </g>
  </g>
</svg>
