<svg xmlns="http://www.w3.org/2000/svg" xmlns:xlink="http://www.w3.org/1999/xlink" width="19" height="19" viewBox="0 0 19 19">
  <defs>
    <path id="behance-copy-2-a" d="M18.375,1.3125 L2.62089844,1.3125 C1.89902344,1.3125 1.3125,1.90722656 1.3125,2.63730469 L1.3125,18.3626953 C1.3125,19.0927734 1.89902344,19.6875 2.62089844,19.6875 L18.375,19.6875 C19.096875,19.6875 19.6875,19.0927734 19.6875,18.3626953 L19.6875,2.63730469 C19.6875,1.90722656 19.096875,1.3125 18.375,1.3125 Z M6.86601563,17.0625 L4.14257812,17.0625 L4.14257812,8.29335938 L6.87011719,8.29335938 L6.87011719,17.0625 L6.86601563,17.0625 Z M5.50429687,7.09570312 C4.63066406,7.09570312 3.92519531,6.38613281 3.92519531,5.51660156 C3.92519531,4.64707031 4.63066406,3.9375 5.50429687,3.9375 C6.37382812,3.9375 7.08339844,4.64707031 7.08339844,5.51660156 C7.08339844,6.39023438 6.37792969,7.09570312 5.50429687,7.09570312 Z M17.0748047,17.0625 L14.3513672,17.0625 L14.3513672,12.796875 C14.3513672,11.7796875 14.3308594,10.4712891 12.9363281,10.4712891 C11.5171875,10.4712891 11.2998047,11.5787109 11.2998047,12.7230469 L11.2998047,17.0625 L8.57636719,17.0625 L8.57636719,8.29335938 L11.1890625,8.29335938 L11.1890625,9.49101563 L11.2259766,9.49101563 C11.5910156,8.80195313 12.4810547,8.07597656 13.8058594,8.07597656 C16.5621094,8.07597656 17.0748047,9.89296875 17.0748047,12.2554687 L17.0748047,17.0625 Z"/>
  </defs>
  <g fill="none" fill-rule="evenodd" transform="translate(-1 -1)">
    <mask id="behance-copy-2-b" fill="#fff">
      <use xlink:href="#behance-copy-2-a"/>
    </mask>
    <use fill="#000" fill-rule="nonzero" xlink:href="#behance-copy-2-a"/>
    <g fill="#242A42" mask="url(#behance-copy-2-b)">
      <rect width="21" height="21"/>
    </g>
  </g>
</svg>
